<?xml version="1.0" encoding="utf-8"?>
<!-- Generator: Adobe Illustrator 19.2.1, SVG Export Plug-In . SVG Version: 6.00 Build 0)  -->
<svg version="1.1" id="Layer_1" xmlns="http://www.w3.org/2000/svg" xmlns:xlink="http://www.w3.org/1999/xlink" x="0px" y="0px"
	 viewBox="0 0 244.3 84" style="enable-background:new 0 0 244.3 84;" xml:space="preserve">
<style type="text/css">
	.st0{fill:none;}
	.st1{fill:#F26446;}
	.st2{fill:url(#SVGID_1_);}
	.st3{fill:url(#SVGID_2_);}
	.st4{fill:url(#SVGID_3_);}
	.st5{fill:url(#SVGID_4_);}
	.st6{fill:url(#SVGID_5_);}
	.st7{fill:url(#SVGID_6_);}
	.st8{fill:url(#SVGID_7_);}
	.st9{fill:url(#SVGID_8_);}
	.st10{fill:url(#SVGID_9_);}
	.st11{fill:url(#SVGID_10_);}
	.st12{fill:url(#SVGID_11_);}
	.st13{fill:url(#SVGID_12_);}
	.st14{fill:url(#SVGID_13_);}
	.st15{fill:url(#SVGID_14_);}
	.st16{fill:url(#SVGID_15_);}
	.st17{fill:url(#SVGID_16_);}
	.st18{fill:url(#SVGID_17_);}
</style>
<g>
	<path d="M12.3,66.9h1.3l1.4,5.2l1.5-5.2h1l1.5,5.2l1.4-5.2h1.2l-2.1,7.2h-1.1l-1.5-5.1l-1.5,5.1h-1.1L12.3,66.9z"/>
	<path d="M22.5,66.9h1.2v7.2h-1.2V66.9z"/>
	<path d="M24.6,73.1l0.7-0.9c0.5,0.5,1.1,0.9,1.9,0.9c0.7,0,1.1-0.4,1.1-0.9v0c0-0.5-0.2-0.7-1.4-1.2c-1.4-0.5-2.1-1-2.1-2.2v0
		c0-1.2,0.9-2,2.3-2c0.8,0,1.6,0.3,2.3,0.8l-0.7,0.9c-0.5-0.4-1-0.7-1.6-0.7c-0.6,0-1,0.4-1,0.8v0c0,0.5,0.3,0.8,1.5,1.2
		c1.3,0.5,1.9,1.1,1.9,2.1v0c0,1.3-1,2.1-2.3,2.1C26.3,74.2,25.4,73.9,24.6,73.1z"/>
	<path d="M30.2,70.5L30.2,70.5c0-2.2,1.4-3.7,3.2-3.7c1,0,1.7,0.4,2.3,0.9L35,68.6c-0.4-0.4-0.9-0.7-1.5-0.7c-1.1,0-2,1-2,2.6v0
		c0,1.6,0.9,2.6,2,2.6c0.7,0,1.1-0.3,1.6-0.7l0.7,0.8c-0.6,0.6-1.4,1-2.3,1C31.6,74.2,30.2,72.7,30.2,70.5z"/>
	<path d="M36.2,70.5v-0.1c0-2.1,1.3-3.7,3.2-3.7c1.9,0,3.2,1.5,3.2,3.6v0.1c0,2.1-1.3,3.7-3.2,3.7C37.5,74.2,36.2,72.7,36.2,70.5z
		 M41.3,70.5L41.3,70.5c0-1.6-0.8-2.6-2-2.6c-1.1,0-1.9,1-1.9,2.6v0.1c0,1.5,0.8,2.6,2,2.6C40.5,73.1,41.3,72.1,41.3,70.5z"/>
	<path d="M43.6,66.9h1.1l3.2,4.8v-4.8H49v7.2h-1l-3.3-4.9v4.9h-1.2V66.9z"/>
	<path d="M49.9,73.1l0.7-0.9c0.5,0.5,1.1,0.9,1.9,0.9c0.7,0,1.1-0.4,1.1-0.9v0c0-0.5-0.2-0.7-1.4-1.2c-1.4-0.5-2.1-1-2.1-2.2v0
		c0-1.2,0.9-2,2.3-2c0.8,0,1.6,0.3,2.3,0.8L54,68.6c-0.5-0.4-1-0.7-1.6-0.7c-0.6,0-1,0.4-1,0.8v0c0,0.5,0.3,0.8,1.5,1.2
		c1.3,0.5,1.9,1.1,1.9,2.1v0c0,1.3-1,2.1-2.3,2.1C51.5,74.2,50.6,73.9,49.9,73.1z"/>
	<path d="M55.9,66.9H57v7.2h-1.2V66.9z"/>
	<path d="M58.4,66.9h1.1l3.2,4.8v-4.8h1.2v7.2h-1l-3.3-4.9v4.9h-1.2V66.9z"/>
	<path d="M67.4,70.5L67.4,70.5c0-2.2,1.4-3.7,3.2-3.7c1,0,1.7,0.4,2.3,0.9l-0.7,0.9c-0.4-0.4-0.9-0.7-1.5-0.7c-1.1,0-2,1-2,2.6v0
		c0,1.6,0.9,2.6,2,2.6c0.7,0,1.1-0.3,1.6-0.7l0.7,0.8c-0.6,0.6-1.4,1-2.3,1C68.7,74.2,67.4,72.7,67.4,70.5z"/>
	<path d="M73.3,70.5v-0.1c0-2.1,1.3-3.7,3.2-3.7c1.9,0,3.2,1.5,3.2,3.6v0.1c0,2.1-1.3,3.7-3.2,3.7C74.6,74.2,73.3,72.7,73.3,70.5z
		 M78.4,70.5L78.4,70.5c0-1.6-0.8-2.6-2-2.6c-1.1,0-1.9,1-1.9,2.6v0.1c0,1.5,0.8,2.6,2,2.6C77.6,73.1,78.4,72.1,78.4,70.5z"/>
	<path d="M82.5,66.9h1.1l2.6,7.2H85l-0.6-1.7h-2.8L81,74.1h-1.2L82.5,66.9z M84.1,71.3l-1-2.9l-1,2.9H84.1z"/>
	<path d="M87.1,66.9h1.2V73h3.1v1.1h-4.3V66.9z"/>
	<path d="M92.3,66.9h1.2v7.2h-1.2V66.9z"/>
	<path d="M96.3,68h-1.9v-1.1h5V68h-1.9v6.1h-1.2V68z"/>
	<path d="M100.4,66.9h1.2v7.2h-1.2V66.9z"/>
	<path d="M102.7,70.5v-0.1c0-2.1,1.3-3.7,3.2-3.7c1.9,0,3.2,1.5,3.2,3.6v0.1c0,2.1-1.3,3.7-3.2,3.7C104,74.2,102.7,72.7,102.7,70.5z
		 M107.8,70.5L107.8,70.5c0-1.6-0.8-2.6-2-2.6c-1.1,0-1.9,1-1.9,2.6v0.1c0,1.5,0.8,2.6,2,2.6C107,73.1,107.8,72.1,107.8,70.5z"/>
	<path d="M110.1,66.9h1.1l3.2,4.8v-4.8h1.2v7.2h-1l-3.3-4.9v4.9h-1.2V66.9z"/>
	<path d="M121.5,66.9h1.1l2.6,7.2H124l-0.6-1.7h-2.8l-0.6,1.7h-1.2L121.5,66.9z M123,71.3l-1-2.9l-1,2.9H123z"/>
	<path d="M125.4,70.5L125.4,70.5c0-2.2,1.4-3.7,3.3-3.7c1,0,1.6,0.3,2.3,0.8l-0.7,0.9c-0.4-0.4-0.9-0.6-1.6-0.6c-1.2,0-2,1.1-2,2.5
		v0.1c0,1.6,0.9,2.6,2.1,2.6c0.5,0,1-0.2,1.3-0.4v-1.6h-1.5v-1h2.6v3.2c-0.6,0.5-1.4,0.9-2.5,0.9C126.8,74.2,125.4,72.7,125.4,70.5z
		"/>
	<path d="M134.5,66.9h1.1l2.6,7.2H137l-0.6-1.7h-2.8l-0.6,1.7h-1.2L134.5,66.9z M136,71.3l-1-2.9l-1,2.9H136z"/>
	<path d="M139.1,66.9h1.2v7.2h-1.2V66.9z"/>
	<path d="M141.7,66.9h1.1l3.2,4.8v-4.8h1.2v7.2h-1l-3.2-4.9v4.9h-1.2V66.9z"/>
	<path d="M148,73.1l0.7-0.9c0.5,0.5,1.1,0.9,1.9,0.9c0.7,0,1.1-0.4,1.1-0.9v0c0-0.5-0.2-0.7-1.4-1.2c-1.4-0.5-2.1-1-2.1-2.2v0
		c0-1.2,0.9-2,2.3-2c0.8,0,1.6,0.3,2.3,0.8l-0.7,0.9c-0.5-0.4-1-0.7-1.6-0.7c-0.6,0-1,0.4-1,0.8v0c0,0.5,0.3,0.8,1.5,1.2
		c1.3,0.5,1.9,1.1,1.9,2.1v0c0,1.3-1,2.1-2.3,2.1C149.6,74.2,148.8,73.9,148,73.1z"/>
	<path d="M155.2,68h-1.9v-1.1h5V68h-1.9v6.1h-1.2V68z"/>
	<path d="M161.1,73.1l0.7-0.9c0.5,0.5,1.1,0.9,1.9,0.9c0.7,0,1.1-0.4,1.1-0.9v0c0-0.5-0.2-0.7-1.4-1.2c-1.4-0.5-2.1-1-2.1-2.2v0
		c0-1.2,0.9-2,2.3-2c0.8,0,1.6,0.3,2.3,0.8l-0.7,0.9c-0.5-0.4-1-0.7-1.6-0.7c-0.6,0-1,0.4-1,0.8v0c0,0.5,0.3,0.8,1.5,1.2
		c1.3,0.5,1.9,1.1,1.9,2.1v0c0,1.3-1,2.1-2.3,2.1C162.8,74.2,161.9,73.9,161.1,73.1z"/>
	<path d="M167,66.9h4.5V68h-3.3v1.9h3V71h-3v2h3.4v1.1H167V66.9z"/>
	<path d="M177.9,66.9l-2.1,3.5l2.2,3.7h-1.4l-1.6-2.7l-1.6,2.7h-1.3l2.2-3.7l-2.1-3.5h1.4l1.5,2.6l1.5-2.6H177.9z"/>
	<path d="M178.7,71.3v-4.4h1.2v4.4c0,1.2,0.6,1.8,1.5,1.8c0.9,0,1.5-0.6,1.5-1.7v-4.5h1.2v4.4c0,1.9-1.1,2.9-2.7,2.9
		C179.7,74.2,178.7,73.2,178.7,71.3z"/>
	<path d="M187.2,66.9h1.1l2.6,7.2h-1.2l-0.6-1.7h-2.8l-0.6,1.7h-1.2L187.2,66.9z M188.7,71.3l-1-2.9l-1,2.9H188.7z"/>
	<path d="M191.8,66.9h1.2V73h3.1v1.1h-4.3V66.9z"/>
	<path d="M201.4,66.9h1.1l2.6,7.2H204l-0.6-1.7h-2.8l-0.6,1.7h-1.2L201.4,66.9z M203,71.3l-1-2.9l-1,2.9H203z"/>
	<path d="M205.4,73.1l0.7-0.9c0.5,0.5,1.1,0.9,1.9,0.9c0.7,0,1.1-0.4,1.1-0.9v0c0-0.5-0.2-0.7-1.4-1.2c-1.4-0.5-2.1-1-2.1-2.2v0
		c0-1.2,0.9-2,2.3-2c0.8,0,1.6,0.3,2.3,0.8l-0.7,0.9c-0.5-0.4-1-0.7-1.6-0.7c-0.6,0-1,0.4-1,0.8v0c0,0.5,0.3,0.8,1.5,1.2
		c1.3,0.5,1.9,1.1,1.9,2.1v0c0,1.3-1,2.1-2.3,2.1C207.1,74.2,206.2,73.9,205.4,73.1z"/>
	<path d="M210.8,73.1l0.7-0.9c0.5,0.5,1.1,0.9,1.9,0.9c0.7,0,1.1-0.4,1.1-0.9v0c0-0.5-0.2-0.7-1.4-1.2c-1.4-0.5-2.1-1-2.1-2.2v0
		c0-1.2,0.9-2,2.3-2c0.8,0,1.6,0.3,2.3,0.8l-0.7,0.9c-0.5-0.4-1-0.7-1.6-0.7c-0.6,0-1,0.4-1,0.8v0c0,0.5,0.3,0.8,1.5,1.2
		c1.3,0.5,1.9,1.1,1.9,2.1v0c0,1.3-1,2.1-2.3,2.1C212.5,74.2,211.6,73.9,210.8,73.1z"/>
	<path d="M218.7,66.9h1.1l2.6,7.2h-1.2l-0.6-1.7h-2.8l-0.6,1.7h-1.2L218.7,66.9z M220.3,71.3l-1-2.9l-1,2.9H220.3z"/>
	<path d="M223,71.3v-4.4h1.2v4.4c0,1.2,0.6,1.8,1.5,1.8c0.9,0,1.5-0.6,1.5-1.7v-4.5h1.2v4.4c0,1.9-1.1,2.9-2.7,2.9
		C224.1,74.2,223,73.2,223,71.3z"/>
	<path d="M229.6,66.9h1.2V73h3.1v1.1h-4.3V66.9z"/>
	<path d="M235.4,68h-1.9v-1.1h5V68h-1.9v6.1h-1.2V68z"/>
</g>
<g>
	<path class="st0" d="M198.4,33.6c-1.1-0.1-1.7-0.2-2.3-0.2c-5.3,0-8.5,1-10,2.8c-1.4,1.6-1.9,3-2,5.3c4.6,0.7,9.3,1.4,13.9,2.1
		c0-0.1,0.1-0.1,0.1-0.2L198.4,33.6z"/>
	<path class="st0" d="M205.3,36.4c0,1.2,0,2.4,0,3.6c0,1.9,0,3.4,0.2,4.6c6.7,1,13.3,1.9,20,2.9C218.5,42.9,212.3,39.9,205.3,36.4z"
		/>
	<path class="st0" d="M57.6,34.8c1.1,4.1,2.1,9.3,2.1,9.3H60c0,0,1.2-6.6,1.8-9.1l2.2-9.9c-3.1-0.5-6.2-0.9-9.3-1.3L57.6,34.8z"/>
	<path class="st0" d="M198.6,26.3c0-0.6,0-1.1,0-1.7c-4.2,0.8-8.6,1.5-14,2.4c4.3,0.1,8.4,0.7,12.5,1.8c0.5,0,1,0,1.6,0.1V26.3z"/>
	<path class="st0" d="M35.2,34.8c0.8,3.8,2,9.4,2,9.4h0.2c0,0,0.8-5.4,1.8-8.7l3.6-13.1c-3.5-0.4-7-0.6-10.5-0.9L35.2,34.8z"/>
	<path class="st0" d="M112.5,41.8c0,4.2,2.1,6.7,6,6.7c3.2,0,6.3-2,8-5l0.2-7.2c-3.1-0.6-6.2-1.2-9.3-1.8c-1.3,0.5-2.3,1.1-2.9,1.8
		C113,37.9,112.5,39.3,112.5,41.8z"/>
	<path class="st0" d="M190.2,48.4c1,0,1.9-0.2,2.8-0.5c-2.4-0.4-4.8-0.7-7.2-1.1C186.8,47.9,188.3,48.4,190.2,48.4z"/>
	<path class="st1" d="M156.8,48.2c-4.3,0-8.6-1.8-12.3-3.8l-2.5,5c4.4,2.6,9.6,4.1,14.3,4.1c7.4,0,12.9-3.6,14.5-9.2
		c-2.3-0.4-4.7-0.8-7-1.2C163.3,46.2,160.5,48.2,156.8,48.2z"/>
	<path class="st1" d="M161.4,29.9l-5-1.1c-4.1-0.9-5.4-2.4-5.4-5.2c0-3.4,2.6-5.7,6.7-5.7c3.1,0,5.9,1,9.4,2.8l2.4-5
		c-3.1-1.8-7.4-3.1-12.1-3.1c-8.3,0-13.8,4.9-13.8,11.9c0,5.7,3.3,9.4,9.3,10.6l4.7,0.9c2.2,0.4,3.8,1.1,4.8,2.1c3,0.5,6,1,8.9,1.4
		C170.8,35,167.9,31.4,161.4,29.9z"/>
	
		<linearGradient id="SVGID_1_" gradientUnits="userSpaceOnUse" x1="6.4062" y1="7.3705" x2="243.1877" y2="7.3705" gradientTransform="matrix(0.995 -1.350000e-02 1.540000e-02 1.1318 -0.7154 15.1071)">
		<stop  offset="4.223980e-03" style="stop-color:#00B7C6"/>
		<stop  offset="0.5018" style="stop-color:#2AACE3"/>
		<stop  offset="0.9988" style="stop-color:#FBB040"/>
	</linearGradient>
	<path class="st2" d="M64,25.1l0.8-3.7c-3.6-0.5-7.3-0.9-11.1-1.2l0.9,3.7C57.8,24.2,60.9,24.7,64,25.1z"/>
	
		<linearGradient id="SVGID_2_" gradientUnits="userSpaceOnUse" x1="6.41" y1="5.3267" x2="243.1712" y2="5.3267" gradientTransform="matrix(0.995 -1.350000e-02 1.540000e-02 1.1318 -0.7154 15.1071)">
		<stop  offset="4.223980e-03" style="stop-color:#00B7C6"/>
		<stop  offset="0.5018" style="stop-color:#2AACE3"/>
		<stop  offset="0.9988" style="stop-color:#FBB040"/>
	</linearGradient>
	<path class="st3" d="M42.7,22.4l0.8-3.1c-4-0.3-8-0.4-12-0.5l0.6,2.7C35.7,21.8,39.2,22,42.7,22.4z"/>
	<linearGradient id="SVGID_3_" gradientUnits="userSpaceOnUse" x1="1.6235" y1="35.7333" x2="313.3232" y2="35.7333">
		<stop  offset="4.223980e-03" style="stop-color:#00B7C6"/>
		<stop  offset="0.5018" style="stop-color:#2AACE3"/>
		<stop  offset="0.9988" style="stop-color:#FBB040"/>
	</linearGradient>
	<path class="st4" d="M26.5,36.1c-0.8,0.2-0.8,0.3-1.1,1c-0.3,0.6-0.6,0.7-1,1.1c-0.4,0.4-0.4,1-1,1.4c-0.5,0.3-1.1,1.1-0.7-0.2
		c0.2-0.6,0.4-1,0.8-1.5c0.4-0.6,1.4-0.8,0.5-1.5c-0.6-0.4,0.4-1.1-0.1-1.4c-0.2-0.1-0.6,0.4-0.8,0.1c-0.2-0.2,0.3-0.6,0.2-0.9
		c-0.1-0.6,0.3-1.1-0.4-1.4c-0.3-0.2-0.5-0.1-0.8-0.2c-0.5-0.2,0.1-0.5-0.2-0.8c-0.2-0.2-1.6-0.5-1.9-0.5c-0.6,0.1-1.2-0.1-1.7-0.4
		c-0.5-0.3-1.1-0.3-1.7-0.4c-0.8-0.2-1.6-0.4-2.4-0.7c-0.2-0.1-0.7-0.1-0.9-0.2c-0.2-0.2-0.1-0.7-0.3-0.9c-0.4-0.4-1.4-0.5-1.9-0.9
		c-0.5-0.3-0.7,0.5-1.2,0.3c0.2-0.1,0.9-1.6,0.7-1.8c-0.5-0.6-1.2,0.1-1.7,0.4c-0.6,0.3-1.3,0.4-2,0.6c-0.1,0-0.2,0-0.2,0.1
		c-0.1-0.5-0.2-1-0.2-1.4c-0.2-5.6,13-5.1,18.4-4.8l-0.6-2.2c-2.6,0.1-5.1,0.1-7.6,0.3c-3.3,0.2-13,2.1-10.6,8.3
		c-0.4,0-0.8,0-1.3-0.2c-0.2,0.1-0.7,0.5-0.8,0.5c-0.1,0.3,0,0.9,0.1,1.1c0,0.6,0.1,1.3,0,2c0,0.7-1.1,1-1.6,1.3
		c-0.4,0.3-0.7,1.1-0.9,1.6c-0.2,0.4,0,0.4,0.4,0.5c0.2,0,0.4,0.5,0.6,0.7c0.1,0.2-0.3,0.7-0.3,0.8c-0.1,0.3-0.1,0.8-0.1,1.1
		c-0.1,0.7,0.1,1.3,0,2.1c-0.1,0.2,1.2,1.1,1.4,1.2c0.7,0.1,0.8,0.7,1.5,0.9c1,0.3,0.7,0.7,1.3,1.4c0.6,0.8,3,1.4,2.5,2.8
		c-0.1,0.4,0.1,1.2,0.3,1.6c0.1,0.3,0.4,0.6,0.5,0.9c0.2,0.3-0.2,0.5-0.3,0.8c-0.2,0.7,0.2,1.4,0.3,2c0.2,0.8,1.2,0.5,1.5,1
		c0.5,1.2,0.2,0.9,1.3,0.9l-0.3,0l11.7,0c-0.1-0.3-0.1-1-0.1-1.3c0-0.2,0.2-0.4,0.1-0.6c0-0.2-0.3-0.3-0.4-0.4
		c-0.2-0.7-0.2-1.6-0.2-2.2c0.1-0.8,0.4-1.6,0.6-2.4c0.2-0.8-0.1-1.6,0.1-2.4c0.1-0.6,0.6-0.6,0.8-1c0.1-0.3-0.2-0.9-0.1-1.2
		c0.2-0.8,0.5-1.7,0.9-2.5c0.2-0.4,0.4-0.8,0.6-1.1c0.1-0.1,0.5-0.7,0.5-0.8c0-0.2,0.3-1,0.3-1C26.8,35.3,26.3,35.8,26.5,36.1z"/>
	
		<linearGradient id="SVGID_4_" gradientUnits="userSpaceOnUse" x1="6.3449" y1="7.4877" x2="243.4666" y2="7.4877" gradientTransform="matrix(0.995 -1.350000e-02 1.540000e-02 1.1318 -0.7154 15.1071)">
		<stop  offset="4.223980e-03" style="stop-color:#00B7C6"/>
		<stop  offset="0.5018" style="stop-color:#2AACE3"/>
		<stop  offset="0.9988" style="stop-color:#FBB040"/>
	</linearGradient>
	<path class="st5" d="M48.2,22.8c0,0,0,0.1,0,0.1c0.1,0,0.2,0,0.3,0c0-0.1,0-0.2,0-0.2H48.2z"/>
	
		<linearGradient id="SVGID_5_" gradientUnits="userSpaceOnUse" x1="6.4209" y1="9.2424" x2="243.1468" y2="9.2424" gradientTransform="matrix(0.995 -1.350000e-02 1.540000e-02 1.1318 -0.7154 15.1071)">
		<stop  offset="4.223980e-03" style="stop-color:#00B7C6"/>
		<stop  offset="0.5018" style="stop-color:#2AACE3"/>
		<stop  offset="0.9988" style="stop-color:#FBB040"/>
	</linearGradient>
	<path class="st6" d="M71.6,22.3l-1.1,3.9c1.4,0.2,2.8,0.5,4.2,0.7c0.3-1.5,0.8-2.8,1.3-4C74.6,22.7,73.1,22.5,71.6,22.3z"/>
	
		<linearGradient id="SVGID_6_" gradientUnits="userSpaceOnUse" x1="6.4066" y1="11.5269" x2="243.1802" y2="11.5269" gradientTransform="matrix(0.995 -1.350000e-02 1.540000e-02 1.1318 -0.7154 15.1071)">
		<stop  offset="4.223980e-03" style="stop-color:#00B7C6"/>
		<stop  offset="0.5018" style="stop-color:#2AACE3"/>
		<stop  offset="0.9988" style="stop-color:#FBB040"/>
	</linearGradient>
	<path class="st7" d="M197,28.7c-4.1-1-8.2-1.6-12.5-1.8c5.4-0.9,9.7-1.6,14-2.4c-0.1-1.3-0.3-2.4-0.7-3.3
		C187.7,23.5,178,26,167.7,27l0,0c3.9,0.3,11.1,1.3,15.1,2c1.5,0.3,2.9,0.5,4.1,0.8c2.6-0.7,5.6-1.1,9-1.1
		C196.3,28.7,196.7,28.7,197,28.7z"/>
	
		<linearGradient id="SVGID_7_" gradientUnits="userSpaceOnUse" x1="6.4018" y1="27.0236" x2="243.1802" y2="27.0236" gradientTransform="matrix(0.995 -1.350000e-02 1.540000e-02 1.1318 -0.7154 15.1071)">
		<stop  offset="4.223980e-03" style="stop-color:#00B7C6"/>
		<stop  offset="0.5018" style="stop-color:#2AACE3"/>
		<stop  offset="0.9988" style="stop-color:#FBB040"/>
	</linearGradient>
	<path class="st8" d="M225.4,47.6c-6.7-1-13.3-2-20-2.9c0.3,2.2,1,3.4,2.9,4.6l-0.5,0.7c11.3,1.5,22.6,2.8,34,3.8
		c-14.1-10.4-25.4-18-36.4-22.4c0,1.5-0.1,3.2-0.1,4.9"/>
	
		<linearGradient id="SVGID_8_" gradientUnits="userSpaceOnUse" x1="6.4175" y1="-0.4725" x2="243.1769" y2="-0.4725" gradientTransform="matrix(0.995 -1.350000e-02 1.540000e-02 1.1318 -0.7154 15.1071)">
		<stop  offset="4.223980e-03" style="stop-color:#00B7C6"/>
		<stop  offset="0.5018" style="stop-color:#2AACE3"/>
		<stop  offset="0.9988" style="stop-color:#FBB040"/>
	</linearGradient>
	<path class="st9" d="M214,21.2c2.8-0.7,14.8-3.2,13.3-9.4c-1.6-6.4-11.5-9.9-17-11.6c3.8,1.3,18.5,8.3,14.5,13.4
		c-1.2,1.5-2.8,3-19.8,6.2c0.3,0.9,0.4,1.9,0.5,3.4C208.2,22.7,210.9,22,214,21.2z"/>
	
		<linearGradient id="SVGID_9_" gradientUnits="userSpaceOnUse" x1="6.4124" y1="22.0407" x2="243.176" y2="22.0407" gradientTransform="matrix(0.995 -1.350000e-02 1.540000e-02 1.1318 -0.7154 15.1071)">
		<stop  offset="4.223980e-03" style="stop-color:#00B7C6"/>
		<stop  offset="0.5018" style="stop-color:#2AACE3"/>
		<stop  offset="0.9988" style="stop-color:#FBB040"/>
	</linearGradient>
	<path class="st10" d="M162.3,38.1c-6.6-1.1-13.1-2.2-19.7-3.5c-3-0.6-5.9-1.1-8.9-1.7c0,1.5-0.1,3-0.1,4.6c2.1,0.4,4.1,0.8,6.2,1.2
		c8,1.5,16,3,24,4.4c0.1-0.4,0.1-0.7,0.1-1.1C163.9,40.4,163.4,39.1,162.3,38.1z"/>
	
		<linearGradient id="SVGID_10_" gradientUnits="userSpaceOnUse" x1="6.3924" y1="26.2321" x2="243.1863" y2="26.2321" gradientTransform="matrix(0.995 -1.350000e-02 1.540000e-02 1.1318 -0.7154 15.1071)">
		<stop  offset="4.223980e-03" style="stop-color:#00B7C6"/>
		<stop  offset="0.5018" style="stop-color:#2AACE3"/>
		<stop  offset="0.9988" style="stop-color:#FBB040"/>
	</linearGradient>
	<path class="st11" d="M176.6,40.3c-1.8-0.3-3.5-0.6-5.3-0.8c0,0.4,0.1,0.8,0.1,1.1c0,1.3-0.2,2.5-0.5,3.7c2,0.3,4,0.7,6,1
		c-0.2-0.9-0.3-1.9-0.3-3C176.4,41.6,176.5,41,176.6,40.3z"/>
	
		<linearGradient id="SVGID_11_" gradientUnits="userSpaceOnUse" x1="5.5875" y1="32.0869" x2="243.3583" y2="32.0869" gradientTransform="matrix(0.995 -1.350000e-02 1.540000e-02 1.1318 -0.7154 15.1071)">
		<stop  offset="4.223980e-03" style="stop-color:#00B7C6"/>
		<stop  offset="0.5018" style="stop-color:#2AACE3"/>
		<stop  offset="0.9988" style="stop-color:#FBB040"/>
	</linearGradient>
	<path class="st12" d="M199.4,48.8c0.1,0,0.3,0,0.4,0.1c0-0.1-0.1-0.2-0.1-0.4C199.6,48.6,199.5,48.7,199.4,48.8z"/>
	
		<linearGradient id="SVGID_12_" gradientUnits="userSpaceOnUse" x1="6.4454" y1="28.4218" x2="243.1705" y2="28.4218" gradientTransform="matrix(0.995 -1.350000e-02 1.540000e-02 1.1318 -0.7154 15.1071)">
		<stop  offset="4.223980e-03" style="stop-color:#00B7C6"/>
		<stop  offset="0.5018" style="stop-color:#2AACE3"/>
		<stop  offset="0.9988" style="stop-color:#FBB040"/>
	</linearGradient>
	<path class="st13" d="M184.1,41.8c0,2.2,0.6,3.9,1.7,5c2.4,0.4,4.8,0.7,7.2,1.1c2-0.8,3.8-2.3,5.1-4.3c-4.6-0.7-9.3-1.4-13.9-2.1
		C184.2,41.6,184.1,41.7,184.1,41.8z"/>
	
		<linearGradient id="SVGID_13_" gradientUnits="userSpaceOnUse" x1="6.4097" y1="12.9152" x2="243.1788" y2="12.9152" gradientTransform="matrix(0.995 -1.350000e-02 1.540000e-02 1.1318 -0.7154 15.1071)">
		<stop  offset="4.223980e-03" style="stop-color:#00B7C6"/>
		<stop  offset="0.5018" style="stop-color:#2AACE3"/>
		<stop  offset="0.9988" style="stop-color:#FBB040"/>
	</linearGradient>
	<path class="st14" d="M83.2,24c-0.4,1.2-0.8,2.5-1,4.1c1.1,0.2,2.1,0.4,3.2,0.5c7.9,1.3,15.8,2.8,23.6,4.2c1.8-1.5,4.1-2.6,7-3.3
		C105.1,27.6,94.2,25.7,83.2,24z"/>
	
		<linearGradient id="SVGID_14_" gradientUnits="userSpaceOnUse" x1="6.3869" y1="18.9236" x2="243.2007" y2="18.9236" gradientTransform="matrix(0.995 -1.350000e-02 1.540000e-02 1.1318 -0.7154 15.1071)">
		<stop  offset="4.223980e-03" style="stop-color:#00B7C6"/>
		<stop  offset="0.5018" style="stop-color:#2AACE3"/>
		<stop  offset="0.9988" style="stop-color:#FBB040"/>
	</linearGradient>
	<path class="st15" d="M126.8,33.6c-1.1-0.1-1.7-0.2-2.3-0.2c-3,0-5.4,0.3-7.1,1c3.1,0.6,6.2,1.2,9.3,1.8L126.8,33.6z"/>
	<g>
		<path class="st1" d="M39.1,35.4c-0.9,3.3-1.8,8.7-1.8,8.7h-0.2c0,0-1.1-5.6-2-9.4l-3-13.2l-0.6-2.7l-1.3-5.6l-7.1,1.1l1.2,4.5
			l0.6,2.2l8.6,31.6h6.7l5.7-21.3c0.5-1.9,1.8-7.5,2-8.4c-1.8-0.2-3.6-0.4-5.4-0.6L39.1,35.4z"/>
		<path class="st1" d="M45,14.1l-1.4,5.2c3.4,0.2,6.9,0.5,10.3,0.8l-1.6-6H45z"/>
		<path class="st1" d="M66.5,14.1l-1.6,7.3L64,25.1l-2.2,9.9c-0.5,2.5-1.8,9.1-1.8,9.1h-0.3c0,0-1.1-5.2-2.1-9.3l-2.8-11
			c-2.1-0.3-4.2-0.6-6.3-0.8c0.3,1,1.7,6.4,2.3,8.8l5.6,20.9h6.8l7.4-26.6l1.1-3.9l2.3-8.2H66.5z"/>
	</g>
	<path class="st1" d="M53.8,20.2c-3.4-0.3-6.8-0.6-10.3-0.8l-0.8,3.1c1.8,0.2,3.6,0.4,5.4,0.6c0-0.1,0-0.1,0-0.1h0.2
		c0,0,0,0.1,0,0.2c2.1,0.2,4.2,0.5,6.3,0.8L53.8,20.2z"/>
	
		<linearGradient id="SVGID_15_" gradientUnits="userSpaceOnUse" x1="6.4082" y1="6.3078" x2="243.1822" y2="6.3078" gradientTransform="matrix(0.995 -1.350000e-02 1.540000e-02 1.1318 -0.7154 15.1071)">
		<stop  offset="4.223980e-03" style="stop-color:#00B7C6"/>
		<stop  offset="0.5018" style="stop-color:#2AACE3"/>
		<stop  offset="0.9988" style="stop-color:#FBB040"/>
	</linearGradient>
	<path class="st16" d="M53.8,20.2c-3.4-0.3-6.8-0.6-10.3-0.8l-0.8,3.1c1.8,0.2,3.6,0.4,5.4,0.6c0-0.1,0-0.1,0-0.1h0.2
		c0,0,0,0.1,0,0.2c2.1,0.2,4.2,0.5,6.3,0.8L53.8,20.2z"/>
	<path class="st1" d="M98.4,43.9c-2.3,2.6-5.1,4-8,4c-2.2,0-4.1-0.8-5.5-2.3c-2-2.1-3.1-5.7-3.1-11c0-2.5,0.1-4.6,0.4-6.4
		c0.2-1.6,0.5-3,1-4.1c0.2-0.4,0.3-0.8,0.5-1.1c1.3-2.6,3.8-4.1,6.7-4.1c2.4,0,4.2,0.8,6.7,3l3.7-4.8c-2.9-2.7-6.3-4.1-10.4-4.1
		c-3.7,0-7.1,1.4-9.9,3.9c-1.8,1.6-3.3,3.6-4.5,6.2c-0.5,1.2-0.9,2.5-1.3,4c-0.4,2-0.7,4.2-0.7,6.8c0,5.8,1.1,10.2,3.7,13.8
		c2.7,3.8,6.8,5.7,12.3,5.7c4.9,0,8.1-1.4,11.8-5L98.4,43.9z"/>
	<path class="st1" d="M133.6,40c0-0.8,0-1.7,0-2.5c0-1.6,0.1-3.1,0.1-4.6c0.1-3,0.2-5.5,0.2-7.1c0-3.7-0.2-5-0.8-6.7
		c-1.5-4.1-5.5-6.1-11.1-6.1c-7.4,0-12.3,2.9-16.1,5l3.2,5c3.1-2.4,7.7-4.4,11.8-4.4c5.4,0,6,3.1,6,7.6v2.5c-1-0.1-1.8-0.1-2.7-0.1
		c-3.1,0-5.9,0.3-8.3,0.9c-2.8,0.7-5.2,1.8-7,3.3c-2.8,2.3-4.3,5.4-4.3,9.5c0,7.3,4.7,11.2,12.4,11.2c6.7,0,9.9-3.8,10.9-5
		c0.9,2.7,2.8,4.6,5.1,5.5l3.6-4.7C133.8,47.5,133.6,45.3,133.6,40z M126.6,43.4c-1.8,3.1-4.8,5-8,5c-3.9,0-6-2.4-6-6.7
		c0-2.5,0.5-3.9,2-5.6c0.6-0.7,1.6-1.3,2.9-1.8c1.7-0.6,4.1-1,7.1-1c0.6,0,1.2,0.1,2.3,0.2l-0.1,2.6L126.6,43.4z"/>
	<path class="st1" d="M171.2,39.5c-3-0.5-6-1-8.9-1.4c1.1,1,1.6,2.3,1.6,4c0,0.4,0,0.8-0.1,1.1c2.3,0.4,4.7,0.8,7,1.2
		c0.3-1.2,0.5-2.4,0.5-3.7C171.3,40.3,171.3,39.9,171.2,39.5z"/>
	
		<linearGradient id="SVGID_16_" gradientUnits="userSpaceOnUse" x1="6.4413" y1="25.0545" x2="243.1649" y2="25.0545" gradientTransform="matrix(0.995 -1.350000e-02 1.540000e-02 1.1318 -0.7154 15.1071)">
		<stop  offset="4.223980e-03" style="stop-color:#00B7C6"/>
		<stop  offset="0.5018" style="stop-color:#2AACE3"/>
		<stop  offset="0.9988" style="stop-color:#FBB040"/>
	</linearGradient>
	<path class="st17" d="M171.2,39.5c-3-0.5-6-1-8.9-1.4c1.1,1,1.6,2.3,1.6,4c0,0.4,0,0.8-0.1,1.1c2.3,0.4,4.7,0.8,7,1.2
		c0.3-1.2,0.5-2.4,0.5-3.7C171.3,40.3,171.3,39.9,171.2,39.5z"/>
	<path class="st1" d="M184.1,41.8c0-0.1,0-0.2,0-0.3c-2.5-0.4-5.1-0.8-7.6-1.2c-0.1,0.6-0.1,1.3-0.1,2c0,1.1,0.1,2.1,0.3,3
		c3,0.5,6.1,1,9.1,1.4C184.7,45.7,184.1,44,184.1,41.8z"/>
	
		<linearGradient id="SVGID_17_" gradientUnits="userSpaceOnUse" x1="6.4077" y1="27.3273" x2="243.1788" y2="27.3273" gradientTransform="matrix(0.995 -1.350000e-02 1.540000e-02 1.1318 -0.7154 15.1071)">
		<stop  offset="4.223980e-03" style="stop-color:#00B7C6"/>
		<stop  offset="0.5018" style="stop-color:#2AACE3"/>
		<stop  offset="0.9988" style="stop-color:#FBB040"/>
	</linearGradient>
	<path class="st18" d="M184.1,41.8c0-0.1,0-0.2,0-0.3c-2.5-0.4-5.1-0.8-7.6-1.2c-0.1,0.6-0.1,1.3-0.1,2c0,1.1,0.1,2.1,0.3,3
		c3,0.5,6.1,1,9.1,1.4C184.7,45.7,184.1,44,184.1,41.8z"/>
	<path class="st1" d="M205.4,44.7c-0.2-1.2-0.2-2.7-0.2-4.6c0-1.2,0-2.4,0-3.6c0-1.7,0.1-3.4,0.1-4.9c0.1-2.3,0.1-4.4,0.1-5.7
		c0-1,0-1.9,0-2.6c-0.1-1.5-0.2-2.5-0.5-3.4c-0.1-0.2-0.1-0.5-0.2-0.7c-1.5-4.1-5.5-6.1-11.1-6.1c-7.4,0-12.3,2.9-16.1,5l3.2,5
		c3.1-2.4,7.7-4.4,11.8-4.4c3,0,4.5,1,5.2,2.6c0.4,0.9,0.6,2,0.7,3.3c0,0.5,0,1.1,0,1.7v2.5c-0.6,0-1.1-0.1-1.6-0.1
		c-0.4,0-0.7,0-1.1,0c-3.4,0-6.4,0.4-9,1.1c-6,1.7-9.6,5.2-10.3,10.5c2.5,0.4,5.1,0.8,7.6,1.2c0-2.3,0.6-3.7,2-5.3
		c1.5-1.8,4.7-2.8,10-2.8c0.6,0,1.2,0.1,2.3,0.2l-0.2,9.8c0,0.1-0.1,0.1-0.1,0.2c-1.2,2-3,3.6-5.1,4.3c-0.9,0.3-1.9,0.5-2.8,0.5
		c-1.9,0-3.3-0.6-4.4-1.6c-3-0.5-6.1-0.9-9.1-1.4c1.2,5.4,5.6,8.2,12.1,8.2c6.2,0,9.4-3.3,10.6-4.7c0.1-0.1,0.2-0.2,0.3-0.3
		c0,0.1,0.1,0.2,0.1,0.4c1,2.5,2.7,4.3,5,5.1l3.1-4l0.5-0.7C206.5,48.1,205.7,46.8,205.4,44.7z"/>
</g>
</svg>
