<?xml version="1.0" encoding="utf-8"?>
<!-- Generator: Adobe Illustrator 18.1.1, SVG Export Plug-In . SVG Version: 6.00 Build 0)  -->
<svg version="1.1" id="Layer_1" xmlns="http://www.w3.org/2000/svg" xmlns:xlink="http://www.w3.org/1999/xlink" x="0px" y="0px"
	 width="399.5px" height="89.8px" viewBox="0 0 399.5 89.8" enable-background="new 0 0 399.5 89.8" xml:space="preserve">
<g>
	<path fill="none" d="M327.4,55.7c-1.8-0.1-2.8-0.3-3.8-0.3c-8.8,0-14.1,1.7-16.7,4.6c-2.3,2.7-3.2,4.9-3.3,8.8
		c7.7,1.2,15.5,2.3,23.2,3.5c0.1-0.1,0.1-0.2,0.2-0.3L327.4,55.7z"/>
	<path fill="none" d="M338.8,60.3c0,2-0.1,4-0.1,6.1c0,3.2,0,5.7,0.3,7.7c11.1,1.6,22.1,3.2,33.2,4.9
		C360.7,71.1,350.4,66.1,338.8,60.3z"/>
	<path fill="none" d="M93.1,57.7c1.8,6.9,3.6,15.5,3.6,15.5h0.5c0,0,2-10.9,2.9-15.1l3.7-16.5c-5.2-0.8-10.3-1.5-15.5-2.2L93.1,57.7
		z"/>
	<path fill="none" d="M327.6,43.5c0-1,0-1.9-0.1-2.8c-7,1.3-14.4,2.4-23.3,3.9c7.1,0.2,14,1.2,20.7,2.9c0.8,0,1.6,0,2.6,0.1V43.5z"
		/>
	<path fill="none" d="M55.8,57.6c1.4,6.4,3.3,15.6,3.3,15.6h0.4c0,0,1.4-9,2.9-14.5L68.3,37c-5.8-0.6-11.7-1.1-17.5-1.4L55.8,57.6z"
		/>
	<path fill="none" d="M184.4,69.3c0,7,3.6,11.1,10,11.1c5.3,0,10.4-3.3,13.4-8.4l0.3-12c-5.2-1-10.4-2-15.5-2.9
		c-2.1,0.8-3.8,1.8-4.8,3C185.3,62.8,184.4,65.1,184.4,69.3z"/>
	<path fill="none" d="M313.6,80.4c1.6,0,3.2-0.3,4.7-0.9c-4-0.6-8-1.2-12-1.8C308.1,79.4,310.5,80.4,313.6,80.4z"/>
	<path fill="#F16345" d="M258.1,80c-7.1,0-14.4-2.9-20.5-6.4l-4.2,8.4c7.4,4.3,16,6.7,23.8,6.7c12.3,0,21.4-6,24.2-15.2
		c-3.9-0.7-7.8-1.3-11.6-2C268.8,76.7,264.3,80,258.1,80z"/>
	<path fill="#F16345" d="M265.7,49.6l-8.3-1.9c-6.7-1.5-9-4.1-9-8.7c0-5.7,4.3-9.5,11.1-9.5c5.1,0,9.8,1.7,15.6,4.6l3.9-8.3
		c-5.2-3.1-12.3-5.2-20.1-5.2c-13.7,0-23,8.1-23,19.8c0,9.4,5.5,15.6,15.5,17.7l7.8,1.5c3.7,0.7,6.3,1.8,8.1,3.5
		c5,0.8,9.9,1.6,14.9,2.4C281.5,58,276.5,52.1,265.7,49.6z"/>
	
		<linearGradient id="SVGID_1_" gradientUnits="userSpaceOnUse" x1="6.5141" y1="16.3014" x2="400.3633" y2="16.3014" gradientTransform="matrix(0.995 -1.350000e-02 1.540000e-02 1.1318 0.1682 20.3066)">
		<stop  offset="4.223980e-03" style="stop-color:#00B6C5"/>
		<stop  offset="0.5018" style="stop-color:#2BABE2"/>
		<stop  offset="0.9988" style="stop-color:#FAAF40"/>
	</linearGradient>
	<path fill="url(#SVGID_1_)" d="M103.8,41.6l1.4-6.2c-6-0.8-12.2-1.4-18.5-2.1l1.6,6.1C93.5,40.1,98.7,40.8,103.8,41.6z"/>
	
		<linearGradient id="SVGID_2_" gradientUnits="userSpaceOnUse" x1="6.5205" y1="12.9019" x2="400.3358" y2="12.9019" gradientTransform="matrix(0.995 -1.350000e-02 1.540000e-02 1.1318 0.1682 20.3066)">
		<stop  offset="4.223980e-03" style="stop-color:#00B6C5"/>
		<stop  offset="0.5018" style="stop-color:#2BABE2"/>
		<stop  offset="0.9988" style="stop-color:#FAAF40"/>
	</linearGradient>
	<path fill="url(#SVGID_2_)" d="M68.3,37l1.4-5.1c-6.7-0.4-13.3-0.7-19.9-0.8l1,4.4C56.6,36,62.5,36.5,68.3,37z"/>
	<linearGradient id="SVGID_3_" gradientUnits="userSpaceOnUse" x1="-8.155439e-09" y1="59.2454" x2="518.4639" y2="59.2454">
		<stop  offset="4.223980e-03" style="stop-color:#00B6C5"/>
		<stop  offset="0.5018" style="stop-color:#2BABE2"/>
		<stop  offset="0.9988" style="stop-color:#FAAF40"/>
	</linearGradient>
	<path fill="url(#SVGID_3_)" d="M41.4,59.9c-1.4,0.3-1.3,0.6-1.9,1.7c-0.5,1-1,1.2-1.6,1.9c-0.7,0.7-0.6,1.7-1.6,2.3
		c-0.8,0.4-1.9,1.8-1.2-0.3c0.3-1,0.7-1.6,1.3-2.5c0.6-1,2.4-1.4,0.8-2.5c-1-0.7,0.6-1.8-0.1-2.3c-0.3-0.2-1,0.6-1.3,0.2
		c-0.3-0.4,0.4-1,0.4-1.5c-0.1-1,0.4-1.8-0.6-2.3c-0.6-0.3-0.9-0.2-1.3-0.4c-0.8-0.4,0.1-0.9-0.3-1.4c-0.3-0.4-2.6-0.8-3.2-0.8
		c-1,0.1-1.9-0.1-2.8-0.7c-0.9-0.5-1.8-0.5-2.8-0.7c-1.4-0.4-2.7-0.7-4.1-1.1c-0.4-0.1-1.2-0.2-1.5-0.4c-0.3-0.3-0.2-1.1-0.5-1.5
		c-0.7-0.7-2.4-0.9-3.2-1.5c-0.8-0.5-1.1,0.8-2,0.4c0.3-0.2,1.5-2.7,1.2-2.9c-0.9-1-2,0.2-2.9,0.6c-0.9,0.4-2.2,0.6-3.3,1
		c-0.1,0.1-0.3,0.1-0.4,0.1c-0.2-0.8-0.4-1.6-0.4-2.4c-0.3-9.3,21.6-8.6,30.7-8.1l-1-3.7c-4.3,0.1-8.5,0.2-12.7,0.5
		c-5.5,0.4-21.5,3.4-17.6,13.8c-0.7,0.1-1.3-0.1-2.2-0.3c-0.3,0.1-1.2,0.8-1.3,0.9c-0.2,0.4,0.1,1.4,0.1,1.9c0,1.1,0.1,2.2,0,3.3
		c-0.1,1.1-1.8,1.7-2.7,2.2C1,54,0.4,55.4,0.1,56.2c-0.3,0.7,0,0.7,0.7,0.8c0.4,0.1,0.7,0.9,0.9,1.2c0.2,0.3-0.4,1.1-0.6,1.4
		C0.9,60,1,60.9,1,61.4c-0.1,1.2,0.2,2.2-0.1,3.4c-0.1,0.4,2,1.8,2.4,1.9c1.2,0.2,1.4,1.1,2.5,1.4c1.6,0.5,1.2,1.1,2.1,2.3
		c1.1,1.3,5,2.3,4.2,4.6c-0.2,0.7,0.2,2,0.4,2.7c0.1,0.5,0.6,1,0.9,1.4c0.4,0.6-0.3,0.8-0.5,1.4c-0.3,1.1,0.3,2.3,0.6,3.4
		c0.4,1.3,2.1,0.8,2.5,1.7c0.9,1.9,0.4,1.5,2.1,1.5l-0.5,0l19.4,0c-0.1-0.6-0.2-1.6-0.2-2.2c0-0.3,0.3-0.7,0.2-1
		c-0.1-0.3-0.5-0.4-0.6-0.7c-0.4-1.1-0.4-2.6-0.3-3.7c0.1-1.4,0.7-2.6,1.1-3.9c0.4-1.4-0.2-2.6,0.2-4.1c0.2-1,1-1,1.3-1.7
		c0.2-0.6-0.4-1.4-0.2-2c0.4-1.4,0.9-2.9,1.5-4.1c0.3-0.6,0.6-1.3,1-1.8c0.2-0.2,0.8-1.2,0.8-1.3c0-0.3,0.6-1.6,0.5-1.6
		C42,58.5,41.1,59.3,41.4,59.9z"/>
	
		<linearGradient id="SVGID_4_" gradientUnits="userSpaceOnUse" x1="6.4122" y1="16.4962" x2="400.8271" y2="16.4962" gradientTransform="matrix(0.995 -1.350000e-02 1.540000e-02 1.1318 0.1682 20.3066)">
		<stop  offset="4.223980e-03" style="stop-color:#00B6C5"/>
		<stop  offset="0.5018" style="stop-color:#2BABE2"/>
		<stop  offset="0.9988" style="stop-color:#FAAF40"/>
	</linearGradient>
	<path fill="url(#SVGID_4_)" d="M77.4,37.8c0,0,0,0.1-0.1,0.2c0.2,0,0.3,0,0.5,0.1c0-0.2-0.1-0.3-0.1-0.3H77.4z"/>
	
		<linearGradient id="SVGID_5_" gradientUnits="userSpaceOnUse" x1="6.5386" y1="19.415" x2="400.2953" y2="19.415" gradientTransform="matrix(0.995 -1.350000e-02 1.540000e-02 1.1318 0.1682 20.3066)">
		<stop  offset="4.223980e-03" style="stop-color:#00B6C5"/>
		<stop  offset="0.5018" style="stop-color:#2BABE2"/>
		<stop  offset="0.9988" style="stop-color:#FAAF40"/>
	</linearGradient>
	<path fill="url(#SVGID_5_)" d="M116.4,36.9l-1.8,6.4c2.4,0.4,4.7,0.8,7.1,1.2c0.5-2.4,1.2-4.6,2.1-6.6
		C121.3,37.5,118.9,37.2,116.4,36.9z"/>
	
		<linearGradient id="SVGID_6_" gradientUnits="userSpaceOnUse" x1="6.5148" y1="23.2148" x2="400.3507" y2="23.2148" gradientTransform="matrix(0.995 -1.350000e-02 1.540000e-02 1.1318 0.1682 20.3066)">
		<stop  offset="4.223980e-03" style="stop-color:#00B6C5"/>
		<stop  offset="0.5018" style="stop-color:#2BABE2"/>
		<stop  offset="0.9988" style="stop-color:#FAAF40"/>
	</linearGradient>
	<path fill="url(#SVGID_6_)" d="M325,47.6c-6.8-1.7-13.6-2.7-20.7-2.9c8.9-1.5,16.2-2.7,23.3-3.9c-0.1-2.2-0.4-4-1.1-5.5
		c-16.9,3.6-33,7.9-50.2,9.5l0,0c6.5,0.5,18.5,2.2,25.1,3.4c2.5,0.5,4.7,0.9,6.9,1.3c4.3-1.2,9.3-1.8,15-1.8
		C323.8,47.6,324.4,47.6,325,47.6z"/>
	
		<linearGradient id="SVGID_7_" gradientUnits="userSpaceOnUse" x1="6.5069" y1="48.9912" x2="400.3507" y2="48.9912" gradientTransform="matrix(0.995 -1.350000e-02 1.540000e-02 1.1318 0.1682 20.3066)">
		<stop  offset="4.223980e-03" style="stop-color:#00B6C5"/>
		<stop  offset="0.5018" style="stop-color:#2BABE2"/>
		<stop  offset="0.9988" style="stop-color:#FAAF40"/>
	</linearGradient>
	<path fill="url(#SVGID_7_)" d="M372.2,79c-11.1-1.7-22.1-3.3-33.2-4.9c0.5,3.6,1.7,5.7,4.9,7.7L343,83c18.8,2.5,37.6,4.7,56.5,6.4
		C376,72,357.2,59.5,339,52.1c-0.1,2.6-0.2,5.3-0.2,8.2"/>
	
		<linearGradient id="SVGID_8_" gradientUnits="userSpaceOnUse" x1="6.5329" y1="3.2557" x2="400.3453" y2="3.2557" gradientTransform="matrix(0.995 -1.350000e-02 1.540000e-02 1.1318 0.1682 20.3066)">
		<stop  offset="4.223980e-03" style="stop-color:#00B6C5"/>
		<stop  offset="0.5018" style="stop-color:#2BABE2"/>
		<stop  offset="0.9988" style="stop-color:#FAAF40"/>
	</linearGradient>
	<path fill="url(#SVGID_8_)" d="M353.2,35c4.6-1.2,24.6-5.4,22.1-15.6C372.6,8.8,356.2,3,347.1,0.2c6.3,2.1,30.8,13.9,24.2,22.2
		c-1.9,2.4-4.6,5-32.9,10.3c0.5,1.6,0.7,3.2,0.8,5.7C343.6,37.5,348.1,36.4,353.2,35z"/>
	
		<linearGradient id="SVGID_9_" gradientUnits="userSpaceOnUse" x1="6.5245" y1="40.7029" x2="400.3438" y2="40.7029" gradientTransform="matrix(0.995 -1.350000e-02 1.540000e-02 1.1318 0.1682 20.3066)">
		<stop  offset="4.223980e-03" style="stop-color:#00B6C5"/>
		<stop  offset="0.5018" style="stop-color:#2BABE2"/>
		<stop  offset="0.9988" style="stop-color:#FAAF40"/>
	</linearGradient>
	<path fill="url(#SVGID_9_)" d="M267.3,63.1c-10.9-1.8-21.8-3.7-32.7-5.8c-5-0.9-9.9-1.9-14.8-2.8c-0.1,2.4-0.1,5-0.2,7.6
		c3.4,0.7,6.9,1.3,10.3,2c13.3,2.6,26.5,5,39.8,7.4c0.1-0.6,0.2-1.2,0.2-1.9C269.9,66.9,269.1,64.8,267.3,63.1z"/>
	
		<linearGradient id="SVGID_10_" gradientUnits="userSpaceOnUse" x1="6.4912" y1="47.6747" x2="400.361" y2="47.6747" gradientTransform="matrix(0.995 -1.350000e-02 1.540000e-02 1.1318 0.1682 20.3066)">
		<stop  offset="4.223980e-03" style="stop-color:#00B6C5"/>
		<stop  offset="0.5018" style="stop-color:#2BABE2"/>
		<stop  offset="0.9988" style="stop-color:#FAAF40"/>
	</linearGradient>
	<path fill="url(#SVGID_10_)" d="M291,66.9c-2.9-0.5-5.9-0.9-8.8-1.4c0.1,0.6,0.1,1.2,0.1,1.9c0,2.2-0.3,4.2-0.9,6.1
		c3.3,0.6,6.6,1.1,9.9,1.7c-0.3-1.6-0.5-3.2-0.5-5C290.7,69.1,290.8,68,291,66.9z"/>
	
		<linearGradient id="SVGID_11_" gradientUnits="userSpaceOnUse" x1="5.1524" y1="57.4132" x2="400.647" y2="57.4132" gradientTransform="matrix(0.995 -1.350000e-02 1.540000e-02 1.1318 0.1682 20.3066)">
		<stop  offset="4.223980e-03" style="stop-color:#00B6C5"/>
		<stop  offset="0.5018" style="stop-color:#2BABE2"/>
		<stop  offset="0.9988" style="stop-color:#FAAF40"/>
	</linearGradient>
	<path fill="url(#SVGID_11_)" d="M329,81c0.2,0,0.5,0.1,0.7,0.1c-0.1-0.2-0.2-0.4-0.2-0.6C329.3,80.7,329.1,80.8,329,81z"/>
	
		<linearGradient id="SVGID_12_" gradientUnits="userSpaceOnUse" x1="6.5793" y1="51.3168" x2="400.3346" y2="51.3168" gradientTransform="matrix(0.995 -1.350000e-02 1.540000e-02 1.1318 0.1682 20.3066)">
		<stop  offset="4.223980e-03" style="stop-color:#00B6C5"/>
		<stop  offset="0.5018" style="stop-color:#2BABE2"/>
		<stop  offset="0.9988" style="stop-color:#FAAF40"/>
	</linearGradient>
	<path fill="url(#SVGID_12_)" d="M303.6,69.3c0,3.6,1,6.4,2.8,8.3c4,0.6,8,1.2,12,1.8c3.4-1.3,6.4-3.8,8.4-7.2
		c-7.7-1.1-15.5-2.3-23.2-3.5C303.6,69,303.6,69.2,303.6,69.3z"/>
	
		<linearGradient id="SVGID_13_" gradientUnits="userSpaceOnUse" x1="6.5199" y1="25.5241" x2="400.3484" y2="25.5241" gradientTransform="matrix(0.995 -1.350000e-02 1.540000e-02 1.1318 0.1682 20.3066)">
		<stop  offset="4.223980e-03" style="stop-color:#00B6C5"/>
		<stop  offset="0.5018" style="stop-color:#2BABE2"/>
		<stop  offset="0.9988" style="stop-color:#FAAF40"/>
	</linearGradient>
	<path fill="url(#SVGID_13_)" d="M135.8,39.7c-0.7,1.9-1.3,4.2-1.6,6.9c1.7,0.3,3.5,0.6,5.2,0.9c13.1,2.2,26.2,4.6,39.3,7
		c3-2.4,6.8-4.3,11.6-5.4C172.1,45.7,154,42.5,135.8,39.7z"/>
	
		<linearGradient id="SVGID_14_" gradientUnits="userSpaceOnUse" x1="6.4821" y1="35.5182" x2="400.3848" y2="35.5182" gradientTransform="matrix(0.995 -1.350000e-02 1.540000e-02 1.1318 0.1682 20.3066)">
		<stop  offset="4.223980e-03" style="stop-color:#00B6C5"/>
		<stop  offset="0.5018" style="stop-color:#2BABE2"/>
		<stop  offset="0.9988" style="stop-color:#FAAF40"/>
	</linearGradient>
	<path fill="url(#SVGID_14_)" d="M208.2,55.7c-1.8-0.1-2.8-0.3-3.8-0.3c-5,0-8.9,0.6-11.8,1.6c5.2,1,10.4,1.9,15.5,2.9L208.2,55.7z"
		/>
	<g>
		<path fill="#F16345" d="M62.4,58.8c-1.5,5.5-2.9,14.5-2.9,14.5h-0.4c0,0-1.9-9.3-3.3-15.6l-5-22l-1-4.4l-2.1-9.3l-11.8,1.9l2,7.4
			l1,3.7l14.4,52.6h11.2L74,52c0.8-3.1,3-12.4,3.4-14c-3-0.4-6-0.7-9-1L62.4,58.8z"/>
		<path fill="#F16345" d="M72.1,23.3L69.7,32c5.7,0.4,11.4,0.8,17.1,1.4l-2.6-10.1H72.1z"/>
		<path fill="#F16345" d="M108,23.3l-2.7,12.1l-1.4,6.2l-3.7,16.5c-0.9,4.2-2.9,15.1-2.9,15.1h-0.5c0,0-1.8-8.7-3.6-15.5l-4.7-18.3
			c-3.5-0.5-7-0.9-10.4-1.3c0.4,1.7,2.8,10.7,3.9,14.7L91,87.5h11.3l12.3-44.2l1.8-6.4l3.8-13.6H108z"/>
	</g>
	<path fill="#F16345" d="M86.8,33.3c-5.6-0.5-11.3-1-17.1-1.4L68.3,37c3,0.3,6,0.6,9,1c0-0.1,0.1-0.2,0.1-0.2h0.4c0,0,0,0.1,0.1,0.3
		c3.5,0.4,7,0.9,10.4,1.3L86.8,33.3z"/>
	
		<linearGradient id="SVGID_15_" gradientUnits="userSpaceOnUse" x1="6.5175" y1="14.5337" x2="400.3542" y2="14.5337" gradientTransform="matrix(0.995 -1.350000e-02 1.540000e-02 1.1318 0.1682 20.3066)">
		<stop  offset="4.223980e-03" style="stop-color:#00B6C5"/>
		<stop  offset="0.5018" style="stop-color:#2BABE2"/>
		<stop  offset="0.9988" style="stop-color:#FAAF40"/>
	</linearGradient>
	<path fill="url(#SVGID_15_)" d="M86.8,33.3c-5.6-0.5-11.3-1-17.1-1.4L68.3,37c3,0.3,6,0.6,9,1c0-0.1,0.1-0.2,0.1-0.2h0.4
		c0,0,0,0.1,0.1,0.3c3.5,0.4,7,0.9,10.4,1.3L86.8,33.3z"/>
	<path fill="#F16345" d="M161,72.8c-3.8,4.3-8.5,6.6-13.2,6.6c-3.7,0-6.9-1.4-9.2-3.8c-3.3-3.6-5.1-9.4-5.1-18.3
		c0-4.1,0.2-7.6,0.6-10.7c0.4-2.6,0.9-4.9,1.6-6.9c0.3-0.7,0.5-1.3,0.8-1.9c2.2-4.3,6.4-6.9,11.2-6.9c4.1,0,7,1.3,11.2,5l6.1-8
		c-4.8-4.5-10.4-6.7-17.3-6.7c-6.2,0-11.8,2.3-16.5,6.5c-3,2.6-5.5,6-7.4,10.3c-0.9,2-1.6,4.1-2.1,6.6c-0.7,3.3-1.1,7-1.1,11.2
		c0,9.7,1.9,17,6.1,23c4.5,6.4,11.3,9.5,20.5,9.5c8.1,0,13.5-2.3,19.6-8.3L161,72.8z"/>
	<path fill="#F16345" d="M219.5,66.4c0-1.4,0-2.8,0-4.2c0-2.6,0.1-5.2,0.2-7.6c0.1-4.9,0.3-9.2,0.3-11.8c0-6.2-0.3-8.4-1.3-11.2
		c-2.4-6.7-9.2-10.2-18.4-10.2c-12.3,0-20.5,4.8-26.7,8.4l5.3,8.4c5.2-3.9,12.8-7.3,19.6-7.3c8.9,0,9.9,5.1,9.9,12.6v4.2
		c-1.7-0.1-2.9-0.1-4.5-0.1c-5.2,0-9.8,0.5-13.8,1.5c-4.7,1.1-8.6,3-11.6,5.4c-4.6,3.8-7.1,9-7.1,15.8c0,12.2,7.9,18.7,20.6,18.7
		c11.1,0,16.4-6.4,18.1-8.4c1.5,4.5,4.6,7.6,8.5,9.2l6-7.9C219.8,78.7,219.5,75.2,219.5,66.4z M207.8,72c-2.9,5.1-8,8.4-13.4,8.4
		c-6.5,0-10-4.1-10-11.1c0-4.2,0.9-6.5,3.3-9.3c1.1-1.2,2.7-2.2,4.8-3c2.9-1,6.8-1.6,11.8-1.6c1,0,2,0.1,3.8,0.3l-0.1,4.3L207.8,72z
		"/>
	<path fill="#F16345" d="M282.1,65.5c-5-0.8-9.9-1.6-14.9-2.4c1.8,1.7,2.6,3.8,2.6,6.6c0,0.6-0.1,1.3-0.2,1.9
		c3.9,0.7,7.8,1.3,11.6,2c0.6-1.9,0.9-4,0.9-6.1C282.2,66.8,282.2,66.1,282.1,65.5z"/>
	
		<linearGradient id="SVGID_16_" gradientUnits="userSpaceOnUse" x1="6.5726" y1="45.7159" x2="400.3253" y2="45.7159" gradientTransform="matrix(0.995 -1.350000e-02 1.540000e-02 1.1318 0.1682 20.3066)">
		<stop  offset="4.223980e-03" style="stop-color:#00B6C5"/>
		<stop  offset="0.5018" style="stop-color:#2BABE2"/>
		<stop  offset="0.9988" style="stop-color:#FAAF40"/>
	</linearGradient>
	<path fill="url(#SVGID_16_)" d="M282.1,65.5c-5-0.8-9.9-1.6-14.9-2.4c1.8,1.7,2.6,3.8,2.6,6.6c0,0.6-0.1,1.3-0.2,1.9
		c3.9,0.7,7.8,1.3,11.6,2c0.6-1.9,0.9-4,0.9-6.1C282.2,66.8,282.2,66.1,282.1,65.5z"/>
	<path fill="#F16345" d="M303.6,69.3c0-0.2,0-0.3,0-0.5c-4.2-0.6-8.4-1.3-12.6-1.9c-0.1,1.1-0.2,2.2-0.2,3.3c0,1.8,0.2,3.5,0.5,5
		c5,0.8,10.1,1.6,15.1,2.4C304.6,75.8,303.6,72.9,303.6,69.3z"/>
	
		<linearGradient id="SVGID_17_" gradientUnits="userSpaceOnUse" x1="6.5167" y1="49.4964" x2="400.3484" y2="49.4964" gradientTransform="matrix(0.995 -1.350000e-02 1.540000e-02 1.1318 0.1682 20.3066)">
		<stop  offset="4.223980e-03" style="stop-color:#00B6C5"/>
		<stop  offset="0.5018" style="stop-color:#2BABE2"/>
		<stop  offset="0.9988" style="stop-color:#FAAF40"/>
	</linearGradient>
	<path fill="url(#SVGID_17_)" d="M303.6,69.3c0-0.2,0-0.3,0-0.5c-4.2-0.6-8.4-1.3-12.6-1.9c-0.1,1.1-0.2,2.2-0.2,3.3
		c0,1.8,0.2,3.5,0.5,5c5,0.8,10.1,1.6,15.1,2.4C304.6,75.8,303.6,72.9,303.6,69.3z"/>
	<path fill="#F16345" d="M339,74.1c-0.3-2-0.3-4.5-0.3-7.7c0-2,0-4,0.1-6.1c0.1-2.9,0.1-5.7,0.2-8.2c0.1-3.9,0.2-7.2,0.2-9.4
		c0-1.7,0-3.1-0.1-4.3c-0.1-2.5-0.3-4.1-0.8-5.7c-0.1-0.4-0.2-0.8-0.4-1.2c-2.4-6.7-9.2-10.2-18.4-10.2c-12.3,0-20.5,4.8-26.7,8.4
		l5.3,8.4c5.2-3.9,12.9-7.3,19.6-7.3c5,0,7.5,1.6,8.7,4.3c0.7,1.5,1,3.4,1.1,5.5c0,0.9,0.1,1.8,0.1,2.8v4.2c-1-0.1-1.8-0.1-2.6-0.1
		c-0.6,0-1.2,0-1.9,0c-5.7,0-10.7,0.6-15,1.8c-10,2.8-16,8.7-17.2,17.5c4.2,0.7,8.4,1.3,12.6,1.9c0.1-3.9,1-6.1,3.3-8.8
		c2.5-2.9,7.9-4.6,16.7-4.6c1,0,2,0.1,3.8,0.3L327,72c-0.1,0.1-0.1,0.2-0.2,0.3c-2,3.4-5.1,5.9-8.4,7.2c-1.5,0.6-3.1,0.9-4.7,0.9
		c-3.1,0-5.6-1-7.3-2.7c-5-0.8-10.1-1.6-15.1-2.4c1.9,8.9,9.2,13.7,20.1,13.7c10.2,0,15.6-5.5,17.6-7.9c0.2-0.2,0.3-0.4,0.4-0.5
		c0.1,0.2,0.2,0.4,0.2,0.6c1.6,4.1,4.5,7.1,8.3,8.5L343,83l0.9-1.2C340.8,79.8,339.5,77.7,339,74.1z"/>
</g>
</svg>
